<svg id="Layer_1" data-name="Layer 1" xmlns="http://www.w3.org/2000/svg" viewBox="0 0 21.99 16.64"><defs><style>.cls-1{fill:#0e4659;}.cls-2{fill:#377c8d;}</style></defs><title>cursosnovo</title><path class="cls-1" d="M17.5,4.5A9.3,9.3,0,0,0,12,6,9.3,9.3,0,0,0,6.5,4.5a10.82,10.82,0,0,0-4.28.79A2,2,0,0,0,1,7.14V18.42a2,2,0,0,0,2.48,1.94,12.35,12.35,0,0,1,3-.36,10.57,10.57,0,0,1,4.56.92,2.06,2.06,0,0,0,1.87,0A10.43,10.43,0,0,1,17.49,20a12.35,12.35,0,0,1,3,.36A2,2,0,0,0,23,18.42V7.14a2,2,0,0,0-1.22-1.85A10.74,10.74,0,0,0,17.5,4.5ZM21,17.23a1,1,0,0,1-1.2,1,12.61,12.61,0,0,0-2.3-.2,12,12,0,0,0-5.5,1.5V8a12,12,0,0,1,5.5-1.5,12.69,12.69,0,0,1,2.7.28,1,1,0,0,1,.8,1Z" transform="translate(-1 -4.5)"/><path class="cls-2" d="M14,11a.75.75,0,0,1-.23-1.46,13.3,13.3,0,0,1,5.36-.45.75.75,0,1,1-.17,1.49,11.82,11.82,0,0,0-4.73.39Z" transform="translate(-1 -4.5)"/><path class="cls-2" d="M14,13.67a.75.75,0,0,1-.23-1.46,13.29,13.29,0,0,1,5.36-.45.75.75,0,1,1-.17,1.49,11.82,11.82,0,0,0-4.73.39Z" transform="translate(-1 -4.5)"/><path class="cls-2" d="M14,16.33a.75.75,0,0,1-.23-1.46,13.29,13.29,0,0,1,5.36-.45.75.75,0,1,1-.17,1.49,11.82,11.82,0,0,0-4.73.39Z" transform="translate(-1 -4.5)"/></svg>