<svg id="Layer_1" data-name="Layer 1" xmlns="http://www.w3.org/2000/svg" viewBox="0 0 21.59 20"><defs><style>.cls-1{fill:#0e4659;}</style></defs><title>idiomasnovo</title><path class="cls-1" d="M12.65,15.67a1,1,0,0,0-.23-1.05l-2.09-2.06,0,0A17.52,17.52,0,0,0,14.07,6H16a1,1,0,0,0,1-1V5a1,1,0,0,0-1-1H10V3A1,1,0,0,0,8,3V4H2A1,1,0,0,0,2,6H12.17A15.66,15.66,0,0,1,9,11.35,15.48,15.48,0,0,1,6.94,8.47.89.89,0,0,0,6.16,8a.91.91,0,0,0-.79,1.35,17.66,17.66,0,0,0,2.3,3.21L3.3,16.87a1,1,0,0,0,0,1.42,1,1,0,0,0,1.42,0L9,14l2,2a1,1,0,0,0,1.63-.35ZM17.5,10a1.44,1.44,0,0,0-1.35.94l-3.67,9.8A.93.93,0,0,0,13.35,22a.94.94,0,0,0,.88-.61L15.12,19h4.75l.9,2.39a1,1,0,0,0,.88.61.94.94,0,0,0,.88-1.26l-3.67-9.8A1.46,1.46,0,0,0,17.5,10Zm-1.62,7,1.62-4.33L19.12,17Z" transform="translate(-1 -2)"/></svg>